# Made in Blockbench 4.9.4
mtllib gas_centrifuge.mtl

o cube
v 1 1 1
v 1 1 0
v 1 0 1
v 1 0 0
v 0 1 0
v 0 1 1
v 0 0 0
v 0 0 1
vt 0.265625 0.6171875
vt 0.390625 0.6171875
vt 0.390625 0.4921875
vt 0.265625 0.4921875
vt 0.3984375 0.6171875
vt 0.5234375 0.6171875
vt 0.5234375 0.4921875
vt 0.3984375 0.4921875
vt 0.4375 1
vt 0.5625 1
vt 0.5625 0.875
vt 0.4375 0.875
vt 0.4375 0.8671875
vt 0.5625 0.8671875
vt 0.5625 0.7421875
vt 0.4375 0.7421875
vt 0.125 0.359375
vt 0 0.359375
vt 0 0.484375
vt 0.125 0.484375
vt 0.2578125 0.484375
vt 0.1328125 0.484375
vt 0.1328125 0.359375
vt 0.2578125 0.359375
vn 0 0 -1
vn 1 0 0
vn 0 0 1
vn -1 0 0
vn 0 1 0
vn 0 -1 0
usemtl m_2aa37d87-ac62-8aa2-7241-a60233eaa7d7
f 4/4/1 7/3/1 5/2/1 2/1/1
f 3/8/2 4/7/2 2/6/2 1/5/2
f 8/12/3 3/11/3 1/10/3 6/9/3
f 7/16/4 8/15/4 6/14/4 5/13/4
f 6/20/5 1/19/5 2/18/5 5/17/5
f 7/24/6 4/23/6 3/22/6 8/21/6
o cylinder
v 0.5 1 0.5
v 0.5 4 0.5
v 0.6339745962155613 1 1
v 0.6339745962155613 4 1
v 0.8660254037844386 1 0.8660254037844386
v 0.8660254037844386 4 0.8660254037844386
v 1 1 0.6339745962155613
v 1 4 0.6339745962155613
v 1 1 0.3660254037844386
v 1 4 0.3660254037844386
v 0.8660254037844386 1 0.1339745962155614
v 0.8660254037844386 4 0.1339745962155614
v 0.6339745962155615 1 1.1102230246251565e-16
v 0.6339745962155615 4 1.1102230246251565e-16
v 0.3660254037844389 1 0
v 0.3660254037844389 4 0
v 0.1339745962155614 1 0.1339745962155613
v 0.1339745962155614 4 0.1339745962155613
v 5.551115123125783e-17 1 0.3660254037844387
v 5.551115123125783e-17 4 0.3660254037844387
v 0 1 0.6339745962155611
v 0 4 0.6339745962155611
v 0.1339745962155613 1 0.8660254037844386
v 0.1339745962155613 4 0.8660254037844386
v 0.3660254037844387 1 1
v 0.3660254037844387 4 1
vt 0.108253125 0.6004406250000001
vt 0.079246875 0.6171875
vt 0.0625 0.5546875
vt 0.176903125 0.625
vt 0.21039687499999998 0.625
vt 0.21039687499999998 1
vt 0.176903125 1
vt 0.212059375 0.4921875
vt 0.241065625 0.5089343749999999
vt 0.1953125 0.5546875
vt 0.125 0.5714343749999999
vt 0.108253125 0.6004406250000001
vt 0.0625 0.5546875
vt 0.0005406250000000029 0.625
vt 0.034034375000000006 0.625
vt 0.034034375000000006 1
vt 0.0005406250000000029 1
vt 0.241065625 0.5089343749999999
vt 0.2578125 0.5379406250000001
vt 0.1953125 0.5546875
vt 0.125 0.5379406250000001
vt 0.125 0.5714343749999999
vt 0.0625 0.5546875
vt 0.034034375000000006 0.625
vt 0.06752812500000001 0.625
vt 0.06752812500000001 1
vt 0.034034375000000006 1
vt 0.2578125 0.5379406250000001
vt 0.2578125 0.5714343749999999
vt 0.1953125 0.5546875
vt 0.108253125 0.5089343749999999
vt 0.125 0.5379406250000001
vt 0.0625 0.5546875
vt 0.06752812500000001 0.625
vt 0.101021875 0.625
vt 0.101021875 1
vt 0.06752812500000001 1
vt 0.2578125 0.5714343749999999
vt 0.241065625 0.6004406250000001
vt 0.1953125 0.5546875
vt 0.079246875 0.4921875
vt 0.108253125 0.5089343749999999
vt 0.0625 0.5546875
vt 0.328665625 0.625
vt 0.362159375 0.625
vt 0.362159375 1
vt 0.328665625 1
vt 0.241065625 0.6004406250000001
vt 0.212059375 0.6171875
vt 0.1953125 0.5546875
vt 0.045753125 0.4921875
vt 0.079246875 0.4921875
vt 0.0625 0.5546875
vt 0.362159375 0.625
vt 0.395653125 0.625
vt 0.395653125 1
vt 0.362159375 1
vt 0.212059375 0.6171875
vt 0.178565625 0.6171875
vt 0.1953125 0.5546875
vt 0.016746875 0.5089343749999999
vt 0.045753125 0.4921875
vt 0.0625 0.5546875
vt 0.395653125 0.625
vt 0.429146875 0.625
vt 0.429146875 1
vt 0.395653125 1
vt 0.178565625 0.6171875
vt 0.149559375 0.6004406250000001
vt 0.1953125 0.5546875
vt 0 0.5379406250000001
vt 0.016746875 0.5089343749999999
vt 0.0625 0.5546875
vt 0.21929062500000002 0.625
vt 0.252784375 0.625
vt 0.252784375 1
vt 0.21929062500000002 1
vt 0.149559375 0.6004406250000001
vt 0.1328125 0.5714343749999999
vt 0.1953125 0.5546875
vt 0 0.5714343749999999
vt 0 0.5379406250000001
vt 0.0625 0.5546875
vt 0.252784375 0.625
vt 0.286278125 0.625
vt 0.286278125 1
vt 0.252784375 1
vt 0.1328125 0.5714343749999999
vt 0.1328125 0.5379406250000001
vt 0.1953125 0.5546875
vt 0.016746875 0.6004406250000001
vt 0 0.5714343749999999
vt 0.0625 0.5546875
vt 0.286278125 0.625
vt 0.319771875 0.625
vt 0.319771875 1
vt 0.286278125 1
vt 0.1328125 0.5379406250000001
vt 0.149559375 0.5089343749999999
vt 0.1953125 0.5546875
vt 0.045753125 0.6171875
vt 0.016746875 0.6004406250000001
vt 0.0625 0.5546875
vt 0.109915625 0.625
vt 0.143409375 0.625
vt 0.143409375 1
vt 0.109915625 1
vt 0.149559375 0.5089343749999999
vt 0.178565625 0.4921875
vt 0.1953125 0.5546875
vt 0.079246875 0.6171875
vt 0.045753125 0.6171875
vt 0.0625 0.5546875
vt 0.143409375 0.625
vt 0.176903125 0.625
vt 0.176903125 1
vt 0.143409375 1
vt 0.178565625 0.4921875
vt 0.212059375 0.4921875
vt 0.1953125 0.5546875
vn 0 -1 0
vn 0.5000000000000001 0 0.8660254037844386
vn 0 1 0
vn 0 -1 0
vn 0.8660254037844386 0 0.5000000000000001
vn 0 1 0
vn 0 -1 0
vn 1 0 0
vn 0 1 0
vn 0 -1 0
vn 0.8660254037844386 0 -0.5000000000000003
vn 0 1 0
vn 0 -1 0
vn 0.5000000000000002 0 -0.8660254037844386
vn 0 1 0
vn 0 -1 0
vn 4.143408735633878e-16 0 -1
vn 0 1 0
vn 0 -1 0
vn -0.4999999999999995 0 -0.8660254037844389
vn 0 1 0
vn 0 -1 0
vn -0.8660254037844388 0 -0.4999999999999998
vn 0 1 0
vn 0 -1 0
vn -1 0 -2.0717043678169412e-16
vn 0 1 0
vn 0 -1 0
vn -0.8660254037844392 0 0.49999999999999956
vn 0 1 0
vn 0 -1 0
vn -0.49999999999999994 0 0.8660254037844387
vn 0 1 0
vn 0 -1 0
vn 0 0 1
vn 0 1 0
usemtl m_2aa37d87-ac62-8aa2-7241-a60233eaa7d7
f 13/25/7 11/26/7 9/27/7
f 11/28/8 13/29/8 14/30/8 12/31/8
f 12/32/9 14/33/9 10/34/9
f 15/35/10 13/36/10 9/37/10
f 13/38/11 15/39/11 16/40/11 14/41/11
f 14/42/12 16/43/12 10/44/12
f 17/45/13 15/46/13 9/47/13
f 15/48/14 17/49/14 18/50/14 16/51/14
f 16/52/15 18/53/15 10/54/15
f 19/55/16 17/56/16 9/57/16
f 17/58/17 19/59/17 20/60/17 18/61/17
f 18/62/18 20/63/18 10/64/18
f 21/65/19 19/66/19 9/67/19
f 19/68/20 21/69/20 22/70/20 20/71/20
f 20/72/21 22/73/21 10/74/21
f 23/75/22 21/76/22 9/77/22
f 21/78/23 23/79/23 24/80/23 22/81/23
f 22/82/24 24/83/24 10/84/24
f 25/85/25 23/86/25 9/87/25
f 23/88/26 25/89/26 26/90/26 24/91/26
f 24/92/27 26/93/27 10/94/27
f 27/95/28 25/96/28 9/97/28
f 25/98/29 27/99/29 28/100/29 26/101/29
f 26/102/30 28/103/30 10/104/30
f 29/105/31 27/106/31 9/107/31
f 27/108/32 29/109/32 30/110/32 28/111/32
f 28/112/33 30/113/33 10/114/33
f 31/115/34 29/116/34 9/117/34
f 29/118/35 31/119/35 32/120/35 30/121/35
f 30/122/36 32/123/36 10/124/36
f 33/125/37 31/126/37 9/127/37
f 31/128/38 33/129/38 34/130/38 32/131/38
f 32/132/39 34/133/39 10/134/39
f 11/135/40 33/136/40 9/137/40
f 33/138/41 11/139/41 12/140/41 34/141/41
f 34/142/42 12/143/42 10/144/42